<svg xmlns="http://www.w3.org/2000/svg" version="1.1" xmlns:xlink="http://www.w3.org/1999/xlink" xmlns:svgjs="http://svgjs.com/svgjs" width="512" height="512"><svg id="SvgjsSvg1000" enable-background="new 0 0 512 512" height="512" viewBox="0 0 512 512" width="512" xmlns="http://www.w3.org/2000/svg"><g><path d="m361.5 0c-39.854 0-77.443 15.577-105.5 43.252-28.057-27.675-65.646-43.252-105.5-43.252-82.986 0-150.5 67.514-150.5 150.5v361.5h90v-361.5c0-33.36 27.141-60.5 60.5-60.5s60.5 27.14 60.5 60.5v361.5h90v-361.5c0-33.36 27.141-60.5 60.5-60.5s60.5 27.14 60.5 60.5v361.5h90v-361.5c0-82.986-67.514-150.5-150.5-150.5zm120.5 482h-30v-331.5c0-49.902-40.598-90.5-90.5-90.5s-90.5 40.598-90.5 90.5v331.5h-30v-331.5c0-49.902-40.598-90.5-90.5-90.5s-90.5 40.598-90.5 90.5v331.5h-30v-331.5c0-66.444 54.056-120.5 120.5-120.5 36.564 0 70.763 16.399 93.824 44.993l11.676 14.476 11.676-14.476c23.061-28.594 57.26-44.993 93.824-44.993 66.444 0 120.5 54.056 120.5 120.5z"></path></g></svg><style>@media (prefers-color-scheme: light) { :root { filter: none; } }
</style></svg>